<svg width="44" height="46" viewBox="0 0 44 46" fill="none" xmlns="http://www.w3.org/2000/svg">
<path d="M35.5972 24.8705C36.133 24.5722 36.6473 24.2669 37.132 23.9552C40.4525 21.823 42.1316 19.6334 41.7392 17.9436C41.2302 15.7424 37.2574 14.374 31.3699 14.374C29.2392 14.374 26.9338 14.5567 24.5603 14.906L25.1472 15.1854C27.6739 16.4176 29.9336 17.9427 31.7444 19.62C32.42 17.8899 32.98 16.2367 33.4145 14.726C33.8329 14.7609 34.2388 14.8003 34.6304 14.8513C34.1268 16.6191 33.4692 18.5481 32.6744 20.5352C33.1484 21.034 33.583 21.5427 33.9718 22.0576C34.6967 23.0149 35.2397 23.9588 35.5972 24.8705ZM17.2715 13.9379C16.9561 14.4251 16.6443 14.923 16.3361 15.429C17.2777 15.1531 18.2463 14.897 19.2382 14.6615C20.032 14.8657 20.8366 15.1191 21.6412 15.4146C21.0741 15.5302 20.5042 15.6511 19.9308 15.7827C15.4159 16.8269 11.573 18.2391 8.56155 19.7678C8.997 20.9373 9.79354 22.1767 10.8813 23.3973C11.5972 21.7281 12.4125 20.0185 13.3246 18.2955L13.5038 17.9597C14.0468 17.7725 14.6032 17.5916 15.1749 17.4152C14.9087 17.8881 14.6453 18.369 14.3873 18.8579C12.098 23.186 10.5032 27.2525 9.52832 30.8051C10.2084 30.8481 10.9216 30.8714 11.6653 30.8714C13.6185 30.8714 15.716 30.7128 17.8763 30.4218C18.5948 30.7657 19.3206 31.0773 20.0464 31.3549C17.1236 31.86 14.2726 32.1251 11.6653 32.1251C4.96773 32.1251 0.744933 30.4711 0.0738367 27.5857C-0.532749 24.9555 2.12476 21.9215 6.81885 19.294C6.8959 19.6934 7.01149 20.1045 7.16381 20.5164C3.01985 22.8842 0.8641 25.4337 1.29597 27.3018C1.70185 29.0543 4.30201 30.2776 8.31157 30.7039C8.82407 28.8036 9.50055 26.7887 10.3383 24.7066C7.39408 21.6179 6.16298 18.2857 7.40393 15.7415C8.43521 13.6263 10.9727 12.4621 14.5486 12.4621C16.957 12.4621 19.6611 13.0012 22.3732 14.0006C25.5101 13.4266 28.5789 13.1221 31.369 13.1221C32.2291 13.1221 33.049 13.1472 33.8249 13.2027C35.3176 7.02806 34.8132 2.62657 32.6906 1.50269C32.3026 1.29582 31.8537 1.19373 31.3609 1.19373C27.9857 1.19373 22.8356 5.77075 18.2078 12.5284C17.758 12.4415 17.3145 12.3699 16.8772 12.3152C21.8634 4.83672 27.4141 -0.0107422 31.3609 -0.0107422C32.0526 -0.0107422 32.6897 0.139706 33.255 0.437019C36.064 1.9218 36.5702 6.85612 35.0372 13.3102C39.5951 13.8215 42.4237 15.3457 42.9595 17.6624C43.4863 19.929 41.6558 22.5385 37.8076 25.0111C37.2296 25.3809 36.615 25.7436 35.9681 26.0946C36.2342 27.3349 36.1258 28.4911 35.6294 29.5066C34.5981 31.6191 32.0616 32.786 28.4848 32.786C27.9508 32.786 27.4006 32.7475 26.8397 32.6982C27.0933 32.3033 27.3433 31.9048 27.5933 31.5C27.8943 31.5161 28.1936 31.5322 28.4839 31.5322C31.5114 31.5322 33.703 30.5937 34.5023 28.9549C35.2925 27.3439 34.746 25.1606 32.971 22.8125C32.7165 22.4767 32.4415 22.1445 32.1476 21.8149C31.4245 23.5218 30.6074 25.2546 29.7096 26.9543L29.3333 27.6546C31.0832 27.0322 32.7228 26.3436 34.2102 25.6039C34.3759 26.0221 34.4924 26.4313 34.5605 26.8236C31.3546 28.3961 27.5073 29.7322 23.3839 30.6851L23.151 30.7379C24.038 30.9833 24.9125 31.1749 25.7655 31.3057C25.9939 30.9528 26.2206 30.5928 26.4455 30.2302C27.0378 30.0528 27.6202 29.8675 28.1927 29.674C22.7442 38.9749 16.1667 45.257 11.6742 45.257C10.9825 45.257 10.3455 45.1075 9.78189 44.8111C7.05897 43.3693 6.49808 38.6911 7.86268 32.5245C8.25602 32.5603 8.66101 32.5899 9.07585 32.6096C7.74889 38.4887 8.28648 42.6546 10.3446 43.7454C10.7316 43.9496 11.1805 44.0552 11.6742 44.0552C15.096 44.0552 20.3411 39.3528 25.0164 32.4457C22.7012 32.0248 20.2614 31.2188 17.8879 30.0618C15.4087 28.8537 13.253 27.4057 11.5255 25.8573C11.6894 25.4418 11.8686 25.0164 12.0461 24.5919C13.7502 26.1958 15.9338 27.7155 18.438 28.9361C19.214 29.3149 19.9971 29.6543 20.7793 29.9534C21.5498 29.8093 22.3266 29.6454 23.1035 29.4663C24.6634 29.1045 26.1812 28.6899 27.6372 28.2269C27.9812 27.6269 28.3181 27.0152 28.6461 26.3928C29.6281 24.54 30.4936 22.6746 31.2408 20.8719C29.4686 19.1508 27.182 17.5764 24.5971 16.3137C22.1457 15.1155 19.6225 14.3042 17.2715 13.9379ZM14.6149 15.96C15.0467 15.2122 15.4867 14.4851 15.9329 13.7758C15.4616 13.7355 15.0001 13.7158 14.5494 13.7158C11.5246 13.7158 9.33031 14.6543 8.53109 16.2931C8.20405 16.9639 8.11535 17.726 8.23899 18.5427C10.1206 17.6015 12.2674 16.7266 14.6149 15.96ZM24.7019 22.7382C24.7019 24.6528 23.1483 26.2075 21.23 26.2075C19.3134 26.2075 17.7589 24.6537 17.7589 22.7382C17.7589 20.8227 19.3134 19.2663 21.23 19.2663C23.1483 19.2663 24.7019 20.8227 24.7019 22.7382Z" fill="#0055BB"/>
</svg>
